<svg xmlns="http://www.w3.org/2000/svg" width="512" height="512" viewBox="0 0 512 512" version="1.1">
	<path d="M 0 256.002 L 0 512.004 256.250 511.752 L 512.500 511.500 512.752 255.750 L 513.004 0 256.502 0 L 0 0 0 256.002 M 0.492 256.500 C 0.492 397.300, 0.608 454.751, 0.750 384.170 C 0.892 313.588, 0.892 198.388, 0.750 128.170 C 0.608 57.951, 0.492 115.700, 0.492 256.500 M 251.500 43.541 C 105.376 67.164, 77.992 71.675, 77.454 72.213 C 77.122 72.545, 80.037 94.232, 80.486 94.773 C 80.696 95.026, 103.766 91.452, 159.500 82.532 C 171.600 80.596, 181.950 79.019, 182.500 79.028 C 183.050 79.037, 181.697 79.863, 179.493 80.864 C 175.497 82.679, 168.908 90.191, 165.641 96.655 C 164.188 99.530, 163.401 99.921, 156.773 101.057 C 152.773 101.743, 149.187 102.573, 148.804 102.902 C 147.761 103.799, 152.341 122.114, 157.378 137.182 C 175.658 191.874, 208.184 232.786, 242 243.621 C 248.746 245.782, 262.713 246.501, 269.092 245.016 C 287.033 240.836, 305.365 223.501, 316.040 200.619 C 324.369 182.767, 330.088 161.585, 333.082 137.500 C 334.499 126.097, 334.790 94.816, 333.601 81.638 L 332.802 72.776 329.151 73.325 C 315.482 75.378, 316.868 75.586, 311.385 70.656 C 306.303 66.087, 297.042 62.069, 291.282 61.935 C 289.752 61.899, 311.675 57.962, 340 53.185 L 391.500 44.500 391.186 39 C 391.013 35.975, 390.338 30.776, 389.686 27.447 L 388.500 21.394 251.500 43.541 M 365.279 67.401 C 361.308 68.065, 357.813 68.854, 357.513 69.154 C 357.212 69.455, 360.548 91.901, 364.925 119.035 L 372.883 168.369 369.960 171.698 C 363.519 179.034, 361.712 186.606, 364.441 194.821 L 366.121 199.879 370.596 197.041 C 377.557 192.627, 386.452 190.618, 396.228 191.252 C 400.777 191.547, 405.175 191.948, 406 192.144 C 407.207 192.430, 407.479 191.401, 407.392 186.872 C 407.243 179.127, 404.021 173.537, 396.988 168.826 L 391.505 165.152 383.502 115.840 C 377.164 76.783, 375.188 66.492, 374 66.361 C 373.175 66.269, 369.251 66.737, 365.279 67.401 M 115 108.073 C 112.525 108.542, 109.126 109.172, 107.447 109.472 L 104.393 110.017 112.608 160.258 L 120.822 210.500 117.493 213.784 C 114.064 217.168, 111 224.347, 111 229 C 111 230.454, 111.714 233.739, 112.586 236.299 L 114.173 240.955 117.836 238.451 C 125.938 232.914, 142.751 230.212, 151.993 232.961 C 153.915 233.532, 155.602 234, 155.743 234 C 155.885 234, 156 231.961, 156 229.468 C 156 221.033, 150.910 212.587, 143.733 209.113 L 139.413 207.021 131.558 158.261 C 127.237 131.442, 123.496 108.938, 123.244 108.250 C 122.734 106.857, 121.542 106.832, 115 108.073 M 385.994 209.934 C 367.933 215.428, 361.645 237.936, 374.313 251.745 C 379.690 257.607, 385.418 260.169, 393.064 260.133 C 403.135 260.085, 411.329 254.964, 416.264 245.634 C 419.258 239.976, 419.260 229.202, 416.268 223.500 C 413.465 218.157, 407.467 212.665, 402.230 210.646 C 397.801 208.939, 390.341 208.612, 385.994 209.934 M 130.493 252.351 C 125.038 254.891, 119.540 260.463, 117.375 265.645 C 115.741 269.557, 115.588 278.976, 117.072 284.321 C 117.656 286.422, 119.762 289.945, 121.753 292.148 C 134.122 305.840, 155.848 303.370, 164.023 287.343 C 167.288 280.941, 167.402 270.477, 164.272 264.500 C 161.458 259.128, 156.367 254.094, 151.500 251.871 C 145.709 249.226, 136.765 249.431, 130.493 252.351 M 269.763 263.992 C 261.989 265.368, 255.472 267.893, 249.313 271.914 C 242.824 276.151, 232.107 286.962, 227.071 294.351 C 222.642 300.849, 213.871 319.610, 210.637 329.500 C 202.344 354.861, 198.566 391.155, 200.955 422.500 C 201.626 431.300, 202.322 438.649, 202.502 438.831 C 202.682 439.014, 206.300 438.637, 210.541 437.994 L 218.253 436.825 222.877 441.276 C 227.104 445.347, 232.345 448.671, 237.500 450.554 C 238.739 451.007, 220.948 454.402, 190.751 459.475 C 163.939 463.979, 141.803 467.863, 141.561 468.106 C 141.318 468.349, 141.897 473.487, 142.847 479.524 L 144.575 490.500 148.538 490.192 C 152.259 489.903, 263.720 471.974, 396 450.388 C 428.175 445.138, 454.927 440.428, 455.449 439.922 C 456.221 439.173, 453.707 418.353, 452.730 417.403 C 452.603 417.280, 433.375 420.234, 410 423.968 C 386.625 427.702, 365.195 431.071, 362.377 431.455 L 357.255 432.153 361.893 427.213 C 364.443 424.496, 367.603 419.984, 368.913 417.185 L 371.296 412.098 378.677 410.907 C 382.736 410.252, 386.293 409.335, 386.581 408.869 C 387.841 406.831, 378.407 373.717, 371.837 357.118 C 366.468 343.552, 355.878 323.612, 348.150 312.518 C 337.807 297.671, 320.276 280.145, 309.209 273.588 C 296.384 265.990, 280.417 262.105, 269.763 263.992 M 416.500 272.021 C 408.929 277.087, 389.102 280.003, 381.762 277.130 C 379.294 276.164, 378.964 276.294, 378.424 278.447 C 378.094 279.761, 378.334 283.290, 378.956 286.290 C 380.305 292.784, 384.978 298.785, 390.697 301.363 L 394.564 303.107 402.911 354.054 C 409.961 397.083, 411.510 404.992, 412.879 404.947 C 415.337 404.868, 428.989 402.348, 429.412 401.896 C 429.615 401.678, 426.240 379.450, 421.911 352.500 C 417.582 325.550, 414.031 302.672, 414.020 301.659 C 414.009 300.646, 415.503 298.062, 417.339 295.917 C 422.801 289.535, 424.494 280.512, 421.551 273.468 C 420.754 271.561, 419.967 270.003, 419.801 270.007 C 419.635 270.010, 418.150 270.917, 416.500 272.021 M 163.085 313.564 C 155.316 317.976, 148.646 319.320, 137.368 318.745 C 127.559 318.244, 127.141 318.307, 126.647 320.362 C 125.966 323.195, 127.268 329.744, 129.280 333.602 C 131.142 337.172, 136.909 342.519, 139.932 343.478 C 141.067 343.839, 142.229 345.116, 142.515 346.317 C 142.801 347.517, 146.559 370.219, 150.865 396.764 C 155.172 423.310, 158.921 445.255, 159.197 445.531 C 159.795 446.129, 175.034 444.015, 176.564 443.121 C 177.281 442.703, 174.947 425.997, 169.423 392 L 161.217 341.500 164.148 338.770 C 167.963 335.217, 170.952 328.530, 170.972 323.500 C 170.990 319.142, 169.385 312.356, 168.156 311.596 C 167.733 311.335, 165.451 312.220, 163.085 313.564" stroke="none" fill="black" fill-rule="evenodd"/>
</svg>