<svg id="Capa_1" enable-background="new 0 0 512 512" height="512" viewBox="0 0 512 512" width="512" xmlns="http://www.w3.org/2000/svg"><g><path d="m423.386 241.118c-.822-4.054 1.758-7.994 5.811-8.844 4.055-.822 7.994 1.757 8.845 5.811 3.657 17.632 2.977 37.644-.057 56.664-3.827 24.039-11.424 46.773-18.538 61.116-12.161 24.492-7.626 43.967 1.133 68.146 8.334.851 15.818 4.62 21.459 10.232 6.435 6.435 10.432 15.364 10.432 25.172v45.129c0 4.139-3.346 7.455-7.484 7.455h-200.04c-4.139 0-7.483-3.345-7.483-7.483v-22.195h-160.727c-4.763 0-9.071-1.928-12.161-5.046-3.118-3.118-5.046-7.427-5.046-12.19v-184.311c0-4.139 3.374-7.483 7.484-7.483 4.139.028 7.483 3.374 7.483 7.512v183.716c.17 2.24.566 2.664 2.834 2.836h160.13v-7.967c0-9.808 3.996-18.709 10.431-25.144 4.791-4.762 10.914-8.191 17.773-9.638.341-10.432 1.701-20.947 4.989-31.266 4.082-12.757 11.111-25.116 22.677-36.483 14.514-14.229 11.537-32.286 8.816-44.957l-35.517 12.53c-4.025 1.417-8.362-.851-9.666-4.848l-15.307-47.453c-.936-2.892-.029-5.952 2.098-7.88l53.659-54.086-7.993-35.093c-1.105-4.876 2.834-9.411 7.738-9.128 3.515 0 25.512.142 51.165 4.903v-108.368c0-1.191-1.077-2.239-2.268-2.239h-48.699c-1.36 5.301-4.11 10.063-7.88 13.805-5.443 5.442-12.983 8.844-21.289 8.844h-39.798c-4.139-.027-7.483-3.373-7.483-7.512 0-4.109 3.373-7.455 7.483-7.455h39.798c9.241 0 15.024-6.633 15.166-15.646.113-8.986-7.115-14.005-15.732-14.685h-16.526c-4.11 0-7.455-3.346-7.455-7.483 0-4.139-1.7-7.909-4.479-10.659-2.749-2.777-6.548-4.478-10.686-4.478h-34.157c-4.139 0-7.909 1.701-10.658 4.451-2.778 2.777-4.48 6.576-4.48 10.715s-3.373 7.483-7.482 7.455h-16.499c-4.734.397-7.682.906-11.254 4.479-5.952 5.954-5.952 15.421-.028 21.374 2.778 2.75 6.576 4.479 10.715 4.479h39.799c4.139 0 7.483 3.346 7.455 7.483 0 4.139-3.345 7.483-7.483 7.483h-39.799c-8.305 0-15.817-3.401-21.26-8.844-3.77-3.741-6.548-8.504-7.908-13.805h-48.105c-2.098.028-2.806.737-2.834 2.835v183.743c0 4.139-3.374 7.483-7.483 7.483-4.139-.028-7.484-3.373-7.484-7.512v-184.311c0-4.762 1.928-9.042 5.046-12.16 3.09-3.118 7.427-5.046 12.189-5.046h48.671c1.36-5.302 4.139-10.036 7.88-13.806 5.471-5.442 13.011-8.815 21.316-8.815h10.517c1.361-5.329 4.139-10.064 7.881-13.806 5.47-5.471 13.01-8.844 21.316-8.844h34.157c8.277 0 15.817 3.373 21.26 8.816 3.77 3.77 6.52 8.504 7.881 13.833h10.573c8.305 0 15.816 3.373 21.26 8.815 3.741 3.742 6.52 8.504 7.88 13.806h48.728c4.734 0 9.043 1.928 12.161 5.046 3.089 3.118 5.045 7.427 5.045 12.189v111.573c18.879 4.762 38.183 12.273 52.555 24.122 2.183 1.786 4.28 3.827 6.151 5.925 2.75 3.09 2.466 7.795-.624 10.574-3.061 2.749-7.795 2.466-10.545-.624-1.417-1.56-2.862-2.948-4.478-4.31-24.689-20.352-68.825-27.354-100.205-28.686l5.642 24.775c9.411 1.53 19.559 3.883 29.225 7.428 9.468 3.486 18.426 8.107 25.824 14.201 10.318 8.504 16.412 20.637 19.474 34.328 3.486 15.647 2.977 33.335.368 49.833-.651 4.082-4.507 6.86-8.589 6.18-4.081-.651-6.859-4.507-6.208-8.589 2.382-14.855 2.863-30.615-.142-44.193-2.381-10.572-6.888-19.785-14.428-25.993-6.038-4.989-13.493-8.815-21.431-11.735-8.957-3.288-18.595-5.442-27.609-6.86l-50.967 51.393 11.594 35.916 35.802-12.587c4.422-1.956 9.581.737 10.403 5.585.283 1.616.709 3.601 1.19 5.755 3.515 15.874 8.844 40.081-12.501 61.029-9.666 9.468-15.506 19.73-18.879 30.36-2.721 8.447-3.911 17.149-4.252 25.909h73.021 50.911c-6.634-18.596-13.919-43.684 1.417-74.581 6.576-13.238 13.606-34.355 17.178-56.893 2.777-17.433 3.485-35.574.197-51.222zm-302.599 39.288c-2.919-2.92-2.919-7.653 0-10.602 2.92-2.92 7.683-2.92 10.602 0l6.18 6.18 17.66-17.66c2.92-2.92 7.682-2.92 10.602 0 2.948 2.92 2.948 7.683.028 10.602l-22.961 22.961c-2.947 2.948-7.682 2.948-10.63 0zm0-120.332c-2.919-2.919-2.919-7.682 0-10.602 2.92-2.919 7.683-2.947 10.602 0l6.18 6.18 17.66-17.66c2.92-2.919 7.682-2.947 10.602 0 2.948 2.92 2.948 7.654.028 10.602l-22.961 22.961c-2.947 2.92-7.682 2.92-10.63 0zm-18.708 186.636h82.517c4.138 0 7.483 3.373 7.455 7.512v82.518c0 4.109-3.345 7.455-7.483 7.455h-82.517c-4.139 0-7.483-3.346-7.483-7.483v-82.518c.028-4.139 3.372-7.484 7.511-7.484zm75.033 14.967h-67.578v67.551h67.578zm-75.033-135.299h82.517c4.138 0 7.483 3.345 7.455 7.483v82.518c0 4.139-3.345 7.483-7.483 7.483h-82.517c-4.139 0-7.483-3.373-7.483-7.483v-82.546c.028-4.11 3.372-7.455 7.511-7.455zm75.033 14.967h-67.578v67.551h67.578zm-75.033-135.328h82.517c4.138.028 7.483 3.373 7.455 7.512v82.518c0 4.11-3.345 7.455-7.483 7.455h-82.517c-4.139 0-7.483-3.345-7.483-7.483v-82.519c.028-4.138 3.372-7.483 7.511-7.483zm75.033 14.966h-67.578v67.579h67.578zm75.317 376.078h185.074v-37.674c0-5.641-2.325-10.771-6.066-14.542-5.074-5.073-9.723-5.867-16.441-6.065h-141.931c-5.556.057-10.63 2.154-14.542 6.065-3.77 3.771-6.094 8.93-6.094 14.57z"/></g></svg>